<?xml version="1.0" encoding="UTF-8"?>
<svg width="48px" height="48px" viewBox="0 0 48 48" version="1.1" xmlns="http://www.w3.org/2000/svg" xmlns:xlink="http://www.w3.org/1999/xlink">
    <!-- Generator: Sketch 59 (86127) - https://sketch.com -->
    <title>Group 2 Copy 5</title>
    <desc>Created with Sketch.</desc>
    <g id="Page-1" stroke="none" stroke-width="1" fill="none" fill-rule="evenodd">
        <g id="Group-2-Copy-5">
            <rect id="Rectangle" x="0" y="0" width="48" height="48"></rect>
            <rect id="Rectangle" fill-opacity="0.5" fill="currentColor" x="14" y="28" width="6" height="6"></rect>
            <rect id="Rectangle-Copy-4" fill-opacity="0.5" fill="currentColor" x="14" y="21" width="6" height="6"></rect>
            <rect id="Rectangle-Copy-5" fill-opacity="0.5" fill="currentColor" x="21" y="21" width="6" height="6"></rect>
            <rect id="Rectangle-Copy-6" fill-opacity="0.5" fill="currentColor" x="28" y="21" width="6" height="6"></rect>
            <rect id="Rectangle-Copy-9" fill-opacity="0.5" fill="currentColor" x="28" y="14" width="6" height="6"></rect>
            <rect id="Rectangle-Copy-10" fill-opacity="0.5" fill="currentColor" x="21" y="14" width="6" height="6"></rect>
            <rect id="Rectangle-Copy-11" fill-opacity="0.5" fill="currentColor" x="14" y="14" width="6" height="6"></rect>
            <rect id="Rectangle-Copy-12" fill-opacity="0.5" fill="currentColor" x="7" y="14" width="6" height="6"></rect>
            <rect id="Rectangle-Copy-16" fill-opacity="0.5" fill="currentColor" x="7" y="7" width="6" height="6"></rect>
            <rect id="Rectangle-Copy-17" fill-opacity="0.5" fill="currentColor" x="14" y="7" width="6" height="6"></rect>
            <rect id="Rectangle-Copy-18" fill-opacity="0.5" fill="currentColor" x="21" y="7" width="6" height="6"></rect>
            <rect id="Rectangle-Copy-19" fill-opacity="0.5" fill="currentColor" x="28" y="7" width="6" height="6"></rect>
            <rect id="Rectangle-Copy-20" fill-opacity="0.5" fill="currentColor" x="35" y="7" width="6" height="6"></rect>
            <rect id="Rectangle-Copy-21" fill-opacity="0.5" fill="currentColor" x="35" y="14" width="6" height="6"></rect>
            <rect id="Rectangle-Copy-22" fill-opacity="0.5" fill="currentColor" x="35" y="21" width="6" height="6"></rect>
            <rect id="Rectangle-Copy-23" fill-opacity="0.5" fill="currentColor" x="35" y="28" width="6" height="6"></rect>
            <rect id="Rectangle-Copy-24" fill-opacity="0.5" fill="currentColor" x="35" y="35" width="6" height="6"></rect>
            <rect id="Rectangle-Copy-13" fill-opacity="0.5" fill="currentColor" x="7" y="21" width="6" height="6"></rect>
            <rect id="Rectangle-Copy-14" fill-opacity="0.5" fill="currentColor" x="7" y="28" width="6" height="6"></rect>
            <rect id="Rectangle-Copy-15" fill-opacity="0.5" fill="currentColor" x="7" y="35" width="6" height="6"></rect>
            <rect id="Rectangle-Copy-7" fill-opacity="0.5" fill="currentColor" x="28" y="28" width="6" height="6"></rect>
            <rect id="Rectangle-Copy-8" fill-opacity="0.5" fill="currentColor" x="28" y="35" width="6" height="6"></rect>
            <rect id="Rectangle-Copy" fill-opacity="0.5" fill="currentColor" x="21" y="28" width="6" height="6"></rect>
            <rect id="Rectangle-Copy-2" fill-opacity="0.5" fill="currentColor" x="21" y="35" width="6" height="6"></rect>
            <rect id="Rectangle-Copy-3" fill-opacity="0.5" fill="currentColor" x="14" y="35" width="6" height="6"></rect>
        </g>
    </g>
</svg>