<?xml version="1.0" encoding="UTF-8"?>
<svg width="48px" height="48px" viewBox="0 0 48 48" version="1.1" xmlns="http://www.w3.org/2000/svg" xmlns:xlink="http://www.w3.org/1999/xlink">
    <!-- Generator: Sketch 59 (86127) - https://sketch.com -->
    <title>Group 2 Copy 4</title>
    <desc>Created with Sketch.</desc>
    <g id="Page-1" stroke="none" stroke-width="1" fill="none" fill-rule="evenodd">
        <g id="Group-2-Copy-4">
            <rect id="Rectangle" x="0" y="0" width="48" height="48"></rect>
            <rect id="Rectangle" fill-opacity="0.5" fill="currentColor" x="15" y="25" width="7" height="7"></rect>
            <rect id="Rectangle-Copy-4" fill-opacity="0.5" fill="currentColor" x="15" y="17" width="7" height="7"></rect>
            <rect id="Rectangle-Copy-5" fill-opacity="0.5" fill="currentColor" x="23" y="17" width="7" height="7"></rect>
            <rect id="Rectangle-Copy-6" fill-opacity="0.5" fill="currentColor" x="31" y="17" width="7" height="7"></rect>
            <rect id="Rectangle-Copy-9" fill-opacity="0.5" fill="currentColor" x="31" y="9" width="7" height="7"></rect>
            <rect id="Rectangle-Copy-10" fill-opacity="0.5" fill="currentColor" x="23" y="9" width="7" height="7"></rect>
            <rect id="Rectangle-Copy-11" fill-opacity="0.5" fill="currentColor" x="15" y="9" width="7" height="7"></rect>
            <rect id="Rectangle-Copy-12" fill-opacity="0.5" fill="currentColor" x="7" y="9" width="7" height="7"></rect>
            <rect id="Rectangle-Copy-13" fill-opacity="0.5" fill="currentColor" x="7" y="17" width="7" height="7"></rect>
            <rect id="Rectangle-Copy-14" fill-opacity="0.5" fill="currentColor" x="7" y="25" width="7" height="7"></rect>
            <rect id="Rectangle-Copy-15" fill-opacity="0.5" fill="currentColor" x="7" y="33" width="7" height="7"></rect>
            <rect id="Rectangle-Copy-7" fill-opacity="0.5" fill="currentColor" x="31" y="25" width="7" height="7"></rect>
            <rect id="Rectangle-Copy-8" fill-opacity="0.5" fill="currentColor" x="31" y="33" width="7" height="7"></rect>
            <rect id="Rectangle-Copy" fill-opacity="0.5" fill="currentColor" x="23" y="25" width="7" height="7"></rect>
            <rect id="Rectangle-Copy-2" fill-opacity="0.5" fill="currentColor" x="23" y="33" width="7" height="7"></rect>
            <rect id="Rectangle-Copy-3" fill-opacity="0.5" fill="currentColor" x="15" y="33" width="7" height="7"></rect>
        </g>
    </g>
</svg>